<?xml version="1.0" encoding="UTF-8" standalone="no"?>
<!-- Created with Inkscape (http://www.inkscape.org/) -->

<svg
   id="svg5"
   version="1.1"
   viewBox="0 0 210 297"
   height="297mm"
   width="210mm"
   sodipodi:docname="box.svg"
   inkscape:version="1.1 (c68e22c387, 2021-05-23)"
   xmlns:inkscape="http://www.inkscape.org/namespaces/inkscape"
   xmlns:sodipodi="http://sodipodi.sourceforge.net/DTD/sodipodi-0.dtd"
   xmlns="http://www.w3.org/2000/svg"
   xmlns:svg="http://www.w3.org/2000/svg">
  <sodipodi:namedview
     id="namedview7"
     pagecolor="#ffffff"
     bordercolor="#666666"
     borderopacity="1.0"
     inkscape:pageshadow="2"
     inkscape:pageopacity="0.0"
     inkscape:pagecheckerboard="0"
     inkscape:document-units="mm"
     showgrid="false"
     inkscape:zoom="0.22820425"
     inkscape:cx="712.0814"
     inkscape:cy="311.1248"
     inkscape:window-width="1280"
     inkscape:window-height="658"
     inkscape:window-x="-6"
     inkscape:window-y="-6"
     inkscape:window-maximized="1"
     inkscape:current-layer="layer1"
     showguides="true"
     inkscape:guide-bbox="true" />
  <defs
     id="defs2" />
  <g
     inkscape:label="Layer 1"
     inkscape:groupmode="layer"
     id="layer1">
    <g
       id="panel7872"
       transform="rotate(89.034637,76.664029,89.917905)">
      <path
         style="fill:none;stroke:#000000;stroke-width:1"
         d="m 28.4,97.9 h 6.8143 v -3.1 h 6.2 v 3.1 h 6.7143 v -3.1 h 6.2 v 3.1 h 6.7143 v -3.1 h 6.2 v 3.1 h 6.7142 v -3.1 h 6.2 v 3.1 h 6.7143 v -3.1 h 6.2 v 3.1 h 6.7143 v -3.1 h 6.2003 v 3.1 h 6.814"
         id="path12747" />
      <path
         style="fill:none;stroke:#000000;stroke-width:1"
         d="m 112.8,97.9 v 7.2 h -3.1 v 5.8 h 3.1 v 7.2"
         id="path12749" />
      <path
         style="fill:none;stroke:#000000;stroke-width:1"
         d="M 112.8,118.1 H 28.4"
         id="path12751"
         sodipodi:nodetypes="cc" />
      <path
         style="fill:none;stroke:#000000;stroke-width:1"
         d="m 28.4,118.1 v -7.2 h 3.1 v -5.8 h -3.1 v -7.2"
         id="path12753" />
    </g>
    <g
       id="panel8020"
       transform="rotate(89.034637,76.664029,89.917905)">
      <path
         style="fill:none;stroke:#000000;stroke-width:1"
         d="m 4.1,31.5 h 7 v -3.1 h 6.2 v 3.1 h 7"
         id="path12756" />
      <path
         style="fill:none;stroke:#000000;stroke-width:1"
         d="m 24.3,31.5 v 5.08 h 3.1 v 6.2 h -3.1 v 8.08 h 3.1 v 6.2 h -3.1 v 8.08 h 3.1 v 6.2 h -3.1 v 8.08 h 3.1 v 6.2 h -3.1 v 5.08"
         id="path12758" />
      <path
         style="fill:none;stroke:#000000;stroke-width:1"
         d="m 24.3,90.7 h -7 v 3.1 h -6.2 v -3.1 h -7"
         id="path12760" />
      <path
         style="fill:none;stroke:#000000;stroke-width:1"
         d="M 4.1,90.7 V 85.62 H 1 v -6.2 H 4.1 V 42.78 H 1 v -6.2 H 4.1 V 31.5"
         id="path12762"
         sodipodi:nodetypes="cccccccccc" />
    </g>
    <g
       id="panel4579"
       transform="rotate(89.034637,76.664029,89.917905)">
      <path
         style="fill:none;stroke:#000000;stroke-width:1"
         d="m 28.4,28.4 h 7.0143 v 3.1 h 5.8 v -3.1 h 7.1143 v 3.1 h 5.8 v -3.1 h 7.1143 v 3.1 h 5.8 v -3.1 h 7.1142 v 3.1 h 5.8 v -3.1 h 7.1143 v 3.1 h 5.8 v -3.1 h 7.1143 v 3.1 h 5.8003 v -3.1 h 7.014"
         id="path12765" />
      <path
         style="fill:none;stroke:#000000;stroke-width:1"
         d="m 112.8,28.4 v 8.38 h -3.1 v 5.8 h 3.1 v 8.48 h -3.1 v 5.8 h 3.1 v 8.48 h -3.1 v 5.8 h 3.1 v 8.48 h -3.1 v 5.8 h 3.1 v 8.38"
         id="path12767" />
      <path
         style="fill:none;stroke:#000000;stroke-width:1"
         d="m 112.8,93.8 h -7.014 v -3.1 h -5.8003 v 3.1 h -7.1143 v -3.1 h -5.8 v 3.1 h -7.1143 v -3.1 h -5.8 v 3.1 h -7.1142 v -3.1 h -5.8 v 3.1 h -7.1143 v -3.1 h -5.8 v 3.1 h -7.1143 v -3.1 h -5.8 v 3.1 H 28.4"
         id="path12769" />
      <path
         style="fill:none;stroke:#000000;stroke-width:1"
         d="m 28.4,93.8 v -8.38 h 3.1 v -5.8 h -3.1 v -8.48 h 3.1 v -5.8 h -3.1 v -8.48 h 3.1 v -5.8 h -3.1 v -8.48 h 3.1 v -5.8 H 28.4 V 28.4"
         id="path12771" />
    </g>
    <g
       id="panel8314"
       transform="rotate(89.034637,76.664029,89.917905)">
      <path
         style="fill:none;stroke:#000000;stroke-width:1"
         d="m 116.9,31.5 h 7 v -3.1 h 6.2 v 3.1 h 7"
         id="path12774" />
      <path
         style="fill:none;stroke:#000000;stroke-width:1"
         d="m 137.1,31.5 v 5.08 h 3.1 v 6.2 h -3.1 v 36.64 h 3.1 v 6.2 h -3.1 v 5.08"
         id="path12776"
         sodipodi:nodetypes="cccccccccc" />
      <path
         style="fill:none;stroke:#000000;stroke-width:1"
         d="m 137.1,90.7 h -7 v 3.1 h -6.2 v -3.1 h -7"
         id="path12778" />
      <path
         style="fill:none;stroke:#000000;stroke-width:1"
         d="m 116.9,90.7 v -5.08 h -3.1 v -6.2 h 3.1 v -8.08 h -3.1 v -6.2 h 3.1 v -8.08 h -3.1 v -6.2 h 3.1 v -8.08 h -3.1 v -6.2 h 3.1 V 31.5"
         id="path12780" />
    </g>
    <g
       id="panel1185"
       transform="rotate(89.034637,64.916299,101.16272)">
      <path
         style="fill:none;stroke:#000000;stroke-width:1"
         d="m 138.55417,28.4 h 89.69166"
         id="path12783"
         sodipodi:nodetypes="cc" />
      <path
         style="fill:none;stroke:#000000;stroke-width:1"
         d="m 228.24583,28.4 v 8.38 H 222.5 v 5.8 h 5.74583 v 8.48 H 222.5 v 20.08 h 5.74583 v 8.48 H 222.5 v 5.8 h 5.74583 v 8.38"
         id="path12785"
         sodipodi:nodetypes="cccccccccccccc" />
      <path
         style="fill:none;stroke:#000000;stroke-width:1"
         d="M 228.24583,93.8 H 138.55417"
         id="path12787"
         sodipodi:nodetypes="cc" />
      <path
         style="fill:none;stroke:#000000;stroke-width:1"
         d="M 138.55417,93.8 V 85.42 H 144.3 v -5.8 h -5.74583 V 71.14 H 144.3 V 51.06 h -5.74583 V 42.58 H 144.3 v -5.8 h -5.74583 V 28.4"
         id="path12789"
         sodipodi:nodetypes="cccccccccccccc" />
    </g>
    <g
       id="panel4908"
       transform="rotate(89.034637,76.664029,89.917905)">
      <path
         style="fill:none;stroke:#000000;stroke-width:1"
         d="m 28.4,4.1 h 84.4"
         id="path12792"
         sodipodi:nodetypes="cc" />
      <path
         style="fill:none;stroke:#000000;stroke-width:1"
         d="m 112.8,4.1 v 7.2 h -3.1 v 5.8 h 3.1 v 7.2"
         id="path12794" />
      <path
         style="fill:none;stroke:#000000;stroke-width:1"
         d="m 112.8,24.3 h -6.814 v 3.1 h -6.2003 v -3.1 h -6.7143 v 3.1 h -6.2 v -3.1 h -6.7143 v 3.1 h -6.2 v -3.1 h -6.7142 v 3.1 h -6.2 v -3.1 h -6.7143 v 3.1 h -6.2 v -3.1 h -6.7143 v 3.1 h -6.2 V 24.3 H 28.4"
         id="path12796" />
      <path
         style="fill:none;stroke:#000000;stroke-width:1"
         d="m 28.4,24.3 v -7.2 h 3.1 V 11.3 H 28.4 V 4.1"
         id="path12798" />
    </g>
    <rect
       style="fill:none;stroke:#000000;stroke-width:0.290761"
       id="rect15347"
       width="11.709239"
       height="13.709239"
       x="23.179352"
       y="-121.87464"
       rx="0"
       ry="0"
       transform="rotate(89.034637)" />
    <rect
       style="fill:none;stroke:#000000;stroke-width:0.395177"
       id="rect15349"
       width="12.604823"
       height="10.604823"
       x="22.540863"
       y="-90.904457"
       rx="0"
       ry="0"
       transform="rotate(89.034637)" />
    <rect
       style="fill:none;stroke:#000000;stroke-width:0.285286"
       id="rect16546"
       width="63.523899"
       height="10.340178"
       x="188.94406"
       y="-87.687828"
       transform="rotate(89.034637)" />
    <rect
       style="fill:none;stroke:#000000;stroke-width:0.264999"
       id="rect16674"
       width="62.853485"
       height="10.360465"
       x="189.27927"
       y="-126.72239"
       transform="rotate(89.034637)" />
    <g
       aria-label="Dude eitthvað"
       transform="matrix(0.01476286,0.87611568,-1.1410778,0.01922757,165.27753,11.749828)"
       id="text18276"
       style="font-size:15.6901px;line-height:1.25;font-family:Lobster;-inkscape-font-specification:Lobster;letter-spacing:0px;fill:#ff0000;stroke-width:0.245156">
      <path
         d="m 201.00825,60.210571 h 2.63594 c 1.72591,0 2.57318,-0.957096 2.57318,-2.714387 v -5.554295 c 0,-1.757291 -0.84727,-2.714388 -2.57318,-2.714388 h -2.63594 z m 1.72591,-1.56901 v -7.84505 h 0.87865 c 0.54915,0 0.87865,0.282422 0.87865,1.066927 v 5.711197 c 0,0.784505 -0.3295,1.066926 -0.87865,1.066926 z"
         style="font-family:'Bebas Neue';-inkscape-font-specification:'Bebas Neue'"
         id="path2828" />
      <path
         d="m 209.88882,60.367472 c 1.69453,0 2.57318,-1.004166 2.57318,-2.761457 v -8.378514 h -1.66315 v 8.504035 c 0,0.784505 -0.32949,1.066926 -0.87865,1.066926 -0.54915,0 -0.87864,-0.282421 -0.87864,-1.066926 v -8.504035 h -1.72591 v 8.378514 c 0,1.757291 0.87864,2.761457 2.57317,2.761457 z"
         style="font-family:'Bebas Neue';-inkscape-font-specification:'Bebas Neue'"
         id="path2830" />
      <path
         d="m 213.6858,60.210571 h 2.63594 c 1.72591,0 2.57318,-0.957096 2.57318,-2.714387 v -5.554295 c 0,-1.757291 -0.84727,-2.714388 -2.57318,-2.714388 h -2.63594 z m 1.72591,-1.56901 v -7.84505 h 0.87865 c 0.54915,0 0.87865,0.282422 0.87865,1.066927 v 5.711197 c 0,0.784505 -0.3295,1.066926 -0.87865,1.066926 z"
         style="font-family:'Bebas Neue';-inkscape-font-specification:'Bebas Neue'"
         id="path2832" />
      <path
         d="m 220.05596,60.210571 h 4.70703 v -1.56901 h -2.98112 V 55.26819 h 2.3692 v -1.56901 h -2.3692 v -2.902669 h 2.98112 v -1.56901 h -4.70703 z"
         style="font-family:'Bebas Neue';-inkscape-font-specification:'Bebas Neue'"
         id="path2834" />
      <path
         d="m 228.26186,60.210571 h 4.70703 v -1.56901 h -2.98112 V 55.26819 h 2.36921 v -1.56901 h -2.36921 v -2.902669 h 2.98112 v -1.56901 h -4.70703 z"
         style="font-family:'Bebas Neue';-inkscape-font-specification:'Bebas Neue'"
         id="path2836" />
      <path
         d="m 233.95735,60.210571 h 1.72591 v -10.98307 h -1.72591 z"
         style="font-family:'Bebas Neue';-inkscape-font-specification:'Bebas Neue'"
         id="path2838" />
      <path
         d="m 238.31919,60.210571 h 1.72591 v -9.41406 h 1.80436 v -1.56901 h -5.33463 v 1.56901 h 1.80436 z"
         style="font-family:'Bebas Neue';-inkscape-font-specification:'Bebas Neue'"
         id="path2840" />
      <path
         d="m 244.18723,60.210571 h 1.72592 v -9.41406 h 1.80436 v -1.56901 h -5.33464 v 1.56901 h 1.80436 z"
         style="font-family:'Bebas Neue';-inkscape-font-specification:'Bebas Neue'"
         id="path2842" />
      <path
         d="m 248.54906,60.210571 h 1.72591 V 55.26819 h 1.85143 v 4.942381 h 1.72591 v -10.98307 h -1.72591 v 4.471679 h -1.85143 v -4.471679 h -1.72591 z"
         style="font-family:'Bebas Neue';-inkscape-font-specification:'Bebas Neue'"
         id="path2844" />
      <path
         d="m 256.34701,60.210571 h 2.29076 l 1.66315,-10.98307 h -1.5847 l -1.12969,8.519725 h -0.0314 l -1.12969,-8.519725 h -1.7416 z"
         style="font-family:'Bebas Neue';-inkscape-font-specification:'Bebas Neue'"
         id="path2846" />
      <path
         d="m 260.23812,60.210571 h 1.60039 l 0.31381,-2.149543 h 1.96126 v -0.03138 l 0.3138,2.180924 h 1.72591 l -1.78867,-10.98307 h -2.33782 z m 2.11817,-3.640103 0.75312,-5.428774 h 0.0314 l 0.76882,5.428774 z"
         style="font-family:'Bebas Neue';-inkscape-font-specification:'Bebas Neue'"
         id="path2848" />
      <path
         d="m 269.88752,49.227501 h -2.63593 v 4.518749 h -0.75313 v 1.47487 h 0.75313 v 4.989451 h 2.63593 c 1.72591,0 2.57318,-0.957096 2.57318,-2.714387 v -5.554295 c 0,-1.757291 -0.84727,-2.714388 -2.57318,-2.714388 z m 0.84727,8.347134 c 0,0.784505 -0.32949,1.066926 -0.87865,1.066926 H 268.9775 V 55.22112 h 0.87864 v -1.47487 h -0.87864 v -2.949739 h 0.87864 c 0.54916,0 0.87865,0.282422 0.87865,1.066927 z"
         style="font-family:'Bebas Neue';-inkscape-font-specification:'Bebas Neue'"
         id="path2850" />
    </g>
  </g>
</svg>
