<?xml version="1.0" encoding="UTF-8" standalone="no"?>
<!-- Created with Inkscape (http://www.inkscape.org/) -->

<svg
   width="210mm"
   height="297mm"
   viewBox="0 0 210 297"
   version="1.1"
   id="svg5"
   inkscape:version="1.1 (c68e22c387, 2021-05-23)"
   sodipodi:docname="logs2.svg"
   inkscape:export-filename="C:\Users\Lenovo\logs.png"
   inkscape:export-xdpi="96"
   inkscape:export-ydpi="96"
   xmlns:inkscape="http://www.inkscape.org/namespaces/inkscape"
   xmlns:sodipodi="http://sodipodi.sourceforge.net/DTD/sodipodi-0.dtd"
   xmlns:xlink="http://www.w3.org/1999/xlink"
   xmlns="http://www.w3.org/2000/svg"
   xmlns:svg="http://www.w3.org/2000/svg">
  <sodipodi:namedview
     id="namedview7"
     pagecolor="#ffffff"
     bordercolor="#666666"
     borderopacity="1.0"
     inkscape:pageshadow="2"
     inkscape:pageopacity="0.0"
     inkscape:pagecheckerboard="0"
     inkscape:document-units="mm"
     showgrid="false"
     inkscape:zoom="0.90509668"
     inkscape:cx="223.733"
     inkscape:cy="601.04076"
     inkscape:window-width="1268"
     inkscape:window-height="680"
     inkscape:window-x="0"
     inkscape:window-y="0"
     inkscape:window-maximized="0"
     inkscape:current-layer="layer1"
     inkscape:snap-nodes="true"
     inkscape:object-nodes="true">
    <inkscape:grid
       type="xygrid"
       id="grid70354" />
  </sodipodi:namedview>
  <defs
     id="defs2">
    <rect
       x="173.46213"
       y="725.88931"
       width="87.283494"
       height="78.444659"
       id="rect37788" />
    <linearGradient
       inkscape:collect="always"
       id="linearGradient28693">
      <stop
         style="stop-color:#4d4d4d;stop-opacity:1"
         offset="0"
         id="stop28689" />
      <stop
         style="stop-color:#cccccc;stop-opacity:1"
         offset="1"
         id="stop28691" />
    </linearGradient>
    <linearGradient
       inkscape:collect="always"
       id="linearGradient28014">
      <stop
         style="stop-color:#ffffff;stop-opacity:1"
         offset="0"
         id="stop28010" />
      <stop
         style="stop-color:#00ffff;stop-opacity:1"
         offset="1"
         id="stop28012" />
    </linearGradient>
    <rect
       x="209.25101"
       y="308.77283"
       width="415.95019"
       height="74.003387"
       id="rect16987" />
    <linearGradient
       inkscape:collect="always"
       id="linearGradient1720">
      <stop
         style="stop-color:#800000;stop-opacity:1"
         offset="0"
         id="stop1716" />
      <stop
         style="stop-color:#b3b3b3;stop-opacity:1"
         offset="1"
         id="stop1718" />
    </linearGradient>
    <inkscape:perspective
       sodipodi:type="inkscape:persp3d"
       inkscape:vp_x="0 : 148.5 : 1"
       inkscape:vp_y="0 : 1000 : 0"
       inkscape:vp_z="210 : 148.5 : 1"
       inkscape:persp3d-origin="105 : 99 : 1"
       id="perspective42260" />
    <rect
       x="224.56206"
       y="403.19098"
       width="398.08731"
       height="392.98361"
       id="rect20364" />
    <rect
       x="275.59889"
       y="474.64253"
       width="347.05048"
       height="321.53205"
       id="rect16222" />
    <rect
       x="308.77283"
       y="500.16095"
       width="181.18075"
       height="127.59208"
       id="rect3558" />
    <radialGradient
       inkscape:collect="always"
       xlink:href="#linearGradient1720"
       id="radialGradient1722"
       cx="97.588943"
       cy="167.02492"
       fx="97.588943"
       fy="167.02492"
       r="53.4711"
       gradientTransform="matrix(1.3460441,1.299482e-7,2.5620304e-8,1.1875572,-35.050694,-34.310001)"
       gradientUnits="userSpaceOnUse"
       spreadMethod="reflect" />
    <linearGradient
       inkscape:collect="always"
       xlink:href="#linearGradient28693"
       id="linearGradient6176"
       x1="58.208332"
       y1="206.375"
       x2="164.04167"
       y2="100.54166"
       gradientUnits="userSpaceOnUse"
       gradientTransform="translate(1.0583333)" />
    <linearGradient
       inkscape:collect="always"
       xlink:href="#linearGradient28014"
       id="linearGradient28016"
       x1="85.989586"
       y1="205.87891"
       x2="120.71616"
       y2="169.91209"
       gradientUnits="userSpaceOnUse" />
  </defs>
  <g
     inkscape:label="Lag 1"
     inkscape:groupmode="layer"
     id="layer1"
     style="display:inline">
    <text
       xml:space="preserve"
       transform="scale(0.26458333)"
       id="text16985"
       style="font-style:normal;font-weight:normal;line-height:100%;font-family:sans-serif;baseline-shift:baseline;white-space:pre;shape-inside:url(#rect16987);fill:#000000;fill-opacity:1;stroke:none" />
    <rect
       style="fill:url(#linearGradient6176);fill-opacity:1;stroke:url(#radialGradient1722);stroke-width:0.265;stroke-miterlimit:4;stroke-dasharray:none"
       id="rect298"
       width="106.67761"
       height="106.67762"
       x="59.798538"
       y="101.27621"
       ry="36.459438" />
    <text
       xml:space="preserve"
       transform="scale(0.26458333)"
       id="text3556"
       style="font-size:85.3333px;line-height:1.25;font-family:'Comic Sans MS';-inkscape-font-specification:'Comic Sans MS';white-space:pre;shape-inside:url(#rect3558)" />
    <text
       xml:space="preserve"
       transform="scale(0.26458333)"
       id="text16220"
       style="font-size:40px;line-height:1.25;font-family:'Comic Sans MS';-inkscape-font-specification:'Comic Sans MS';white-space:pre;shape-inside:url(#rect16222)" />
    <g
       aria-label="e"
       transform="matrix(1.1033546,0,0,0.83888412,-194.94978,-289.32585)"
       id="text20362"
       style="font-size:192px;line-height:1.25;font-family:'Comic Sans MS';-inkscape-font-specification:'Comic Sans MS';white-space:pre;shape-inside:url(#rect20364);fill:#ffffff"
       inkscape:transform-center-x="0.41341146"
       inkscape:transform-center-y="-2.8938802">
      <path
         d="m 281.375,574.32679 q -21.1875,0 -34.3125,-10.59375 -14.34375,-11.71875 -14.34375,-32.8125 0,-24.375 11.8125,-40.875 12.84375,-18 34.3125,-18 15.5625,0 25.40625,5.25 12.09375,6.46875 12.09375,19.875 0,9.375 -10.59375,17.0625 -4.6875,3.375 -19.875,10.5 l -35.8125,16.96875 q 5.25,7.78125 13.03125,11.71875 7.875,3.9375 18.28125,3.9375 6.46875,0 15.1875,-2.4375 11.0625,-3.09375 14.25,-8.0625 3.1875,-5.0625 6.84375,-5.0625 3.28125,0 5.8125,2.53125 2.625,2.4375 2.625,5.71875 0,10.40625 -16.78125,17.90625 -14.34375,6.375 -27.9375,6.375 z m -2.53125,-85.40625 q -11.4375,0 -19.03125,8.90625 -7.59375,8.8125 -11.34375,26.625 L 277.25,510.76429 q 16.96875,-8.25 24.1875,-14.34375 -8.0625,-7.5 -22.59375,-7.5 z"
         id="path26594" />
    </g>
    <text
       xml:space="preserve"
       style="font-style:normal;font-variant:normal;font-weight:normal;font-stretch:normal;font-size:10.5833px;line-height:1.25;font-family:Papyrus;-inkscape-font-specification:Papyrus;fill:#000000;fill-opacity:1;stroke:none;stroke-width:0.264583"
       x="-155.96536"
       y="247.11395"
       id="text55577"><tspan
         sodipodi:role="line"
         id="tspan55575"
         style="font-style:normal;font-variant:normal;font-weight:normal;font-stretch:normal;font-family:Papyrus;-inkscape-font-specification:Papyrus;stroke-width:0.264583"
         x="-155.96536"
         y="247.11395" /></text>
    <text
       xml:space="preserve"
       style="font-style:normal;font-weight:normal;font-size:10.5833px;line-height:1.25;font-family:sans-serif;fill:#00ffff;fill-opacity:1;stroke:#280b0b;stroke-width:0.264583"
       x="-52.502773"
       y="139.11128"
       id="text57967"
       inkscape:transform-center-x="2.0586323"
       inkscape:transform-center-y="-2.0800707"
       transform="matrix(0.8452357,-0.02230436,-0.62441795,1.1995793,0,0)"><tspan
         sodipodi:role="line"
         id="tspan57965"
         style="fill:#00ffff;fill-opacity:1;stroke:#280b0b;stroke-width:0.264583"
         x="-52.502773"
         y="139.11128">aðal narinn</tspan></text>
    <g
       aria-label="'nar productions"
       id="text20374"
       style="font-size:7.05556px;line-height:1.25;font-family:'Comic Sans MS';-inkscape-font-specification:'Comic Sans MS';letter-spacing:0px;fill:url(#linearGradient28016);stroke-width:0.264583">
      <path
         d="m 86.258299,199.27661 q 0,0.10336 0.01723,0.30662 0.01722,0.20326 0.01722,0.30661 0,0.44097 -0.310059,0.44097 -0.213596,0 -0.272162,-0.15158 -0.02756,-0.0792 -0.02756,-0.32729 0,-0.0965 -0.02067,-0.28594 -0.01722,-0.19292 -0.01722,-0.28939 0,-0.34451 0.02756,-0.46508 0.0689,-0.27217 0.303168,-0.27217 0.130914,0 0.220487,0.0861 0.08957,0.0827 0.08957,0.2136 0,0.0723 -0.01378,0.22048 -0.01378,0.1447 -0.01378,0.21704 z"
         id="path34517" />
      <path
         d="m 90.526775,204.50283 q -0.296278,0 -0.334174,-0.32384 l -0.09646,-0.75448 q -0.04823,-0.40308 -0.04823,-0.75448 0,-0.0965 0.01034,-0.32728 0.01378,-0.23082 0.01378,-0.32728 0,-0.74415 -0.275607,-0.74415 -0.385851,0 -0.737251,0.4582 -0.316949,0.41686 -0.496094,1.0542 -0.0069,0.13436 -0.03101,0.33762 -0.02067,0.17226 -0.02067,0.33418 0,0.10335 0.02067,0.31006 0.02067,0.2067 0.02067,0.31005 0,0.15503 -0.09646,0.2515 -0.09302,0.0965 -0.241157,0.0965 -0.151584,0 -0.244602,-0.0965 -0.09302,-0.0965 -0.09302,-0.2515 0,-0.10335 -0.02411,-0.31005 -0.02067,-0.20671 -0.02067,-0.31006 0,-0.35485 0.04823,-0.98186 0.05168,-0.63045 0.05168,-0.98529 0,-0.11025 -0.01378,-0.32729 -0.01033,-0.21704 -0.01033,-0.32728 0,-0.14814 0.09646,-0.24116 0.09991,-0.0965 0.244602,-0.0965 0.316949,0 0.347955,0.44786 l 0.01033,0.40308 q 0.578776,-0.7717 1.188559,-0.7717 0.551215,0 0.768256,0.48575 0.14814,0.32384 0.16192,0.95774 v 0.34796 l -0.0034,0.32039 q 0,0.28594 0.07235,0.7407 0.07579,0.4513 0.07579,0.7338 0,0.15159 -0.09991,0.2446 -0.09646,0.0965 -0.244602,0.0965 z"
         id="path34519" />
      <path
         d="m 94.268151,204.4856 q -0.06546,0 -0.237711,-0.15158 -0.15503,-0.14125 -0.230822,-0.2515 -0.330729,0.17915 -0.582221,0.26872 -0.251493,0.093 -0.420302,0.093 -0.806153,0 -1.174779,-0.45475 -0.347955,-0.4272 -0.347955,-1.30914 0,-0.83371 0.571887,-1.42627 0.575331,-0.59256 1.371149,-0.59256 0.299723,0 0.671794,0.15503 0.468533,0.19293 0.468533,0.46509 0,0.093 -0.0689,0.16536 -0.03445,0.13092 -0.05512,0.43064 -0.01722,0.29973 -0.02067,0.76826 -0.0034,0.42719 0.05857,0.67524 0.03445,0.15158 0.217042,0.60634 0.02412,0.062 0.07924,0.18259 l 0.02067,0.0586 q 0,0.13781 -0.09646,0.22738 -0.09646,0.0896 -0.223932,0.0896 z m -0.71658,-2.39434 q 0,-0.14814 0.01723,-0.3204 0.02067,-0.1757 0.05857,-0.37207 -0.127468,-0.0654 -0.220486,-0.0965 -0.08957,-0.031 -0.144694,-0.031 -0.53399,0 -0.923286,0.43753 -0.385851,0.43408 -0.385851,1.00253 0,0.56499 0.199815,0.84749 0.199816,0.2825 0.599447,0.2825 0.33073,0 0.561551,-0.12058 0.124024,-0.0655 0.347955,-0.26183 -0.110243,-0.91295 -0.110243,-1.3677 z"
         id="path34521" />
      <path
         d="m 97.868278,201.7123 q -0.02412,0.43063 -0.34451,0.43063 -0.296278,0 -0.296278,-0.34106 0,-0.0655 -0.01033,-0.24116 l -0.01034,-0.28939 q -0.544325,0.0655 -0.871609,0.30662 -0.306614,0.22393 -0.509875,0.67524 l 0.0069,1.88791 q 0,0.34796 -0.341064,0.34796 -0.303169,0 -0.303169,-0.34796 v -2.41846 q 0,-0.11369 0.0069,-0.34106 0.01034,-0.22738 0.01034,-0.34107 0,-0.34795 0.303168,-0.34795 0.33762,0 0.341065,0.57188 0.661459,-0.63734 1.467612,-0.63734 0.279052,0 0.416856,0.21015 0.137804,0.21015 0.137804,0.6339 0,0.17915 -0.0034,0.24116 z"
         id="path34523" />
      <path
         d="m 102.15054,204.3788 q -0.34451,0 -0.75793,-0.11024 l -0.007,1.64676 q 0,0.15158 -0.0965,0.24804 -0.093,0.0965 -0.24116,0.0965 -0.14813,0 -0.2446,-0.0965 -0.093,-0.0965 -0.093,-0.24804 l 0.0103,-1.37804 v -1.3746 q -0.0103,-0.75447 -0.0517,-1.37459 l -0.0517,-0.69936 q 0,-0.2446 0.0896,-0.41341 0.10335,-0.20326 0.29972,-0.20326 0.13436,0 0.22393,0.0965 0.093,0.093 0.093,0.23083 0,0.031 -0.0103,0.11368 -0.0172,0.1068 -0.0241,0.19638 0.29628,-0.20327 0.57189,-0.30317 0.27561,-0.10336 0.5271,-0.10336 0.70624,0 1.03353,0.62701 0.25838,0.4961 0.25838,1.31258 0,0.74414 -0.39963,1.22646 -0.42375,0.50987 -1.12999,0.50987 z m 0.23771,-2.9869 q -0.31695,0 -0.57189,0.14125 -0.18259,0.0999 -0.46164,0.36518 0.0448,0.78204 0.0448,1.64331 0.37552,0.1447 0.75104,0.1447 0.43063,0 0.65801,-0.3204 0.19637,-0.27905 0.19637,-0.72347 0,-0.627 -0.15503,-0.93706 -0.15158,-0.31351 -0.46164,-0.31351 z"
         id="path34525" />
      <path
         d="m 107.13904,201.7123 q -0.0241,0.43063 -0.34451,0.43063 -0.29628,0 -0.29628,-0.34106 0,-0.0655 -0.0103,-0.24116 l -0.0103,-0.28939 q -0.54433,0.0655 -0.87161,0.30662 -0.30662,0.22393 -0.50988,0.67524 l 0.007,1.88791 q 0,0.34796 -0.34106,0.34796 -0.30317,0 -0.30317,-0.34796 v -2.41846 q 0,-0.11369 0.007,-0.34106 0.0103,-0.22738 0.0103,-0.34107 0,-0.34795 0.30316,-0.34795 0.33762,0 0.34107,0.57188 0.66146,-0.63734 1.46761,-0.63734 0.27905,0 0.41686,0.21015 0.1378,0.21015 0.1378,0.6339 0,0.17915 -0.003,0.24116 z"
         id="path34527" />
      <path
         d="m 109.14064,204.46149 q -0.57878,0 -0.99564,-0.4272 -0.46508,-0.47542 -0.4892,-1.27813 -0.0207,-0.77859 0.39274,-1.37115 0.48232,-0.69935 1.34359,-0.69935 0.68902,0 1.04386,0.63045 0.2825,0.50988 0.27217,1.22646 -0.0103,0.76481 -0.39963,1.30569 -0.44098,0.61323 -1.16789,0.61323 z m 0.2067,-3.07648 q -0.50643,-0.003 -0.78892,0.48232 -0.22393,0.38929 -0.22393,0.88883 0,0.49954 0.27216,0.77859 0.22737,0.23083 0.53399,0.23083 0.35829,0 0.61667,-0.26183 0.29283,-0.28939 0.31006,-0.78204 0.0482,-1.33325 -0.72003,-1.3367 z"
         id="path34529" />
      <path
         d="m 114.73203,201.2162 q -0.0413,0.50643 -0.0413,1.01286 0,1.14722 0.1068,1.73289 0.007,0.0482 0.007,0.0792 0,0.13781 -0.0965,0.22738 -0.0965,0.0896 -0.22393,0.0896 -0.2136,0 -0.31351,-0.31006 -0.24805,0.18259 -0.51676,0.27561 -0.26528,0.093 -0.55466,0.093 -0.71314,0 -1.18167,-0.47542 -0.48232,-0.48576 -0.48232,-1.24713 0,-0.91984 0.48576,-1.4745 0.48921,-0.55466 1.2678,-0.55466 0.39963,0 0.61667,0.12402 l 0.32384,0.23771 q 0.0482,-1.45038 0.11369,-1.95337 0.0448,-0.30661 0.3135,-0.30661 0.31351,0 0.31351,0.33417 0,0.47887 -0.13781,2.11529 z m -1.52962,0.0896 q -0.57878,0 -0.86817,0.34451 -0.28938,0.34106 -0.28938,1.03008 0,0.44442 0.3135,0.76481 0.31695,0.3204 0.7407,0.3204 0.28938,0 0.4892,-0.1068 0.11713,-0.062 0.38241,-0.28595 0.0517,-0.0448 0.0999,-0.10679 l -0.0103,-0.59601 0.003,-0.39963 0.007,-0.40652 q -0.13091,-0.27905 -0.34795,-0.41686 -0.21704,-0.14124 -0.52021,-0.14124 z"
         id="path34531" />
      <path
         d="m 118.51475,202.24629 q 0,0.24804 0.003,0.74414 0.003,0.49609 0.003,0.74414 0,0.0758 0.0103,0.23082 0.0138,0.15503 0.0138,0.23082 0,0.14814 -0.0999,0.24116 -0.0999,0.0965 -0.2446,0.0965 -0.26528,0 -0.33762,-0.32728 -0.43064,0.22393 -0.99219,0.22393 -0.45131,0 -0.74759,-0.19982 -0.32728,-0.22048 -0.38929,-0.64423 -0.13436,-0.91295 -0.13436,-1.62609 0,-0.47197 0.10335,-1.07487 0.0482,-0.29972 0.32728,-0.29972 0.14814,0 0.24805,0.0965 0.0999,0.093 0.0999,0.24116 0,0.15847 -0.0517,0.50643 -0.0482,0.34795 -0.0482,0.53054 0,0.57534 0.0379,0.9853 0.0379,0.40997 0.11369,0.65802 0.11368,0.062 0.22393,0.0965 0.11024,0.031 0.21704,0.031 0.46164,0 0.97496,-0.14813 l -0.003,-0.69936 -0.007,-0.66835 q 0,-0.74414 0.0654,-1.29191 0.0379,-0.31695 0.33418,-0.31695 0.14814,0 0.24804,0.0965 0.0999,0.0965 0.093,0.24116 z"
         id="path34533" />
      <path
         d="m 120.92976,204.47527 q -0.70624,0 -1.17822,-0.4272 -0.49609,-0.44786 -0.49609,-1.18166 0,-0.69936 0.46508,-1.4435 0.51677,-0.82682 1.16445,-0.82682 0.33762,0 0.75447,0.15847 0.5271,0.20326 0.5271,0.49609 0,0.13092 -0.0861,0.23427 -0.0861,0.0999 -0.2136,0.0999 -0.0999,0 -0.1757,-0.0586 -0.0724,-0.062 -0.14125,-0.12058 -0.20326,-0.16192 -0.6649,-0.16192 -0.3514,0 -0.69591,0.62701 -0.31351,0.57533 -0.31351,0.99564 0,0.45475 0.31006,0.71658 0.28939,0.2446 0.74414,0.2446 0.20671,0 0.44098,-0.11025 l 0.39963,-0.21359 q 0.10335,-0.0551 0.14814,-0.0551 0.12747,0 0.22048,0.10335 0.093,0.0999 0.093,0.23082 0,0.25149 -0.53054,0.48576 -0.46509,0.20671 -0.77171,0.20671 z"
         id="path34535" />
      <path
         d="m 125.30159,201.323 q -0.0724,0 -0.17225,-0.007 -0.0965,-0.007 -0.16881,-0.007 -0.0792,0 -0.46854,0.0517 l 0.0655,2.03605 0.003,0.15158 0.003,0.1757 q 0.0138,0.75448 -0.36174,0.75448 -0.1378,0 -0.24115,-0.0896 -0.0999,-0.0896 -0.0999,-0.22393 0,-0.13092 0.0103,-0.39274 0.0103,-0.26183 0.0103,-0.39275 l -0.0689,-2.01193 q -0.25149,-0.0103 -0.76481,-0.0586 -0.30662,-0.0413 -0.30662,-0.34106 0,-0.15159 0.093,-0.2515 0.093,-0.0999 0.23771,-0.0999 l 0.72347,0.0586 q 0,-0.1757 -0.0172,-0.46853 -0.0138,-0.29628 -0.0138,-0.42719 0,-0.1447 0.0999,-0.23771 0.0999,-0.0965 0.2446,-0.0965 0.31006,0 0.36173,0.50643 0.0103,0.12747 0.0103,0.30662 l -0.007,0.19981 -0.003,0.2136 q 0.42719,-0.0551 0.48921,-0.0551 0.35829,0 0.46853,0.0344 0.21015,0.0689 0.21015,0.32384 0,0.15158 -0.0965,0.25149 -0.093,0.0965 -0.24116,0.0965 z"
         id="path34537" />
      <path
         d="m 126.97935,199.89673 q -0.16536,0 -0.28594,-0.11713 -0.12058,-0.11714 -0.12058,-0.2825 0,-0.16537 0.12058,-0.2825 0.12058,-0.11713 0.28594,-0.11713 0.16537,0 0.2825,0.11713 0.12058,0.11713 0.12058,0.2825 0,0.16536 -0.12058,0.2825 -0.11713,0.11713 -0.2825,0.11713 z m 0.15503,2.79742 q 0,0.20671 0.0103,0.62012 0.0138,0.40996 0.0138,0.61667 0,0.15158 -0.093,0.24805 -0.093,0.0965 -0.2446,0.0965 -0.14814,0 -0.2446,-0.0965 -0.093,-0.0965 -0.093,-0.24805 0,-0.20671 -0.0138,-0.61667 -0.0103,-0.41341 -0.0103,-0.62012 0,-0.32384 0.0345,-0.80615 0.0344,-0.48576 0.0344,-0.8096 0,-0.15503 0.093,-0.25149 0.0965,-0.0965 0.24461,-0.0965 0.14814,0 0.24115,0.0965 0.0965,0.0965 0.0965,0.25149 0,0.32384 -0.0345,0.8096 -0.0345,0.48231 -0.0345,0.80615 z"
         id="path34539" />
      <path
         d="m 129.59074,204.46149 q -0.57878,0 -0.99564,-0.4272 -0.46508,-0.47542 -0.4892,-1.27813 -0.0207,-0.77859 0.39274,-1.37115 0.48232,-0.69935 1.34359,-0.69935 0.68902,0 1.04386,0.63045 0.2825,0.50988 0.27217,1.22646 -0.0103,0.76481 -0.39963,1.30569 -0.44098,0.61323 -1.16789,0.61323 z m 0.2067,-3.07648 q -0.50643,-0.003 -0.78892,0.48232 -0.22393,0.38929 -0.22393,0.88883 0,0.49954 0.27216,0.77859 0.22737,0.23083 0.53399,0.23083 0.35829,0 0.61667,-0.26183 0.29283,-0.28939 0.31006,-0.78204 0.0482,-1.33325 -0.72003,-1.3367 z"
         id="path34541" />
      <path
         d="m 134.65159,204.50283 q -0.29628,0 -0.33418,-0.32384 l -0.0965,-0.75448 q -0.0482,-0.40308 -0.0482,-0.75448 0,-0.0965 0.0103,-0.32728 0.0138,-0.23082 0.0138,-0.32728 0,-0.74415 -0.27561,-0.74415 -0.38585,0 -0.73725,0.4582 -0.31695,0.41686 -0.4961,1.0542 -0.007,0.13436 -0.031,0.33762 -0.0207,0.17226 -0.0207,0.33418 0,0.10335 0.0207,0.31006 0.0207,0.2067 0.0207,0.31005 0,0.15503 -0.0965,0.2515 -0.093,0.0965 -0.24116,0.0965 -0.15159,0 -0.2446,-0.0965 -0.093,-0.0965 -0.093,-0.2515 0,-0.10335 -0.0241,-0.31005 -0.0207,-0.20671 -0.0207,-0.31006 0,-0.35485 0.0482,-0.98186 0.0517,-0.63045 0.0517,-0.98529 0,-0.11025 -0.0138,-0.32729 -0.0103,-0.21704 -0.0103,-0.32728 0,-0.14814 0.0965,-0.24116 0.0999,-0.0965 0.2446,-0.0965 0.31695,0 0.34795,0.44786 l 0.0103,0.40308 q 0.57878,-0.7717 1.18856,-0.7717 0.55121,0 0.76826,0.48575 0.14813,0.32384 0.16191,0.95774 v 0.34796 l -0.003,0.32039 q 0,0.28594 0.0724,0.7407 0.0758,0.4513 0.0758,0.7338 0,0.15159 -0.0999,0.2446 -0.0965,0.0965 -0.2446,0.0965 z"
         id="path34543" />
      <path
         d="m 138.02778,201.6055 q -0.18948,0 -0.26527,-0.12747 -0.0517,-0.0896 -0.0896,-0.37207 -0.25839,0.0655 -0.79582,0.24116 -0.55466,0.22048 -0.55811,0.54432 0.10336,0.0379 0.20326,0.0551 0.79238,0.14125 1.17823,0.3893 0.56155,0.36174 0.56155,1.04731 0,0.56155 -0.48576,0.84749 -0.40308,0.23427 -1.01975,0.23427 -0.45131,0 -0.86127,-0.15158 -0.53055,-0.19293 -0.53055,-0.53744 0,-0.1378 0.1068,-0.24116 0.11024,-0.10335 0.24805,-0.10335 0.10679,0 0.2756,0.16537 0.0827,0.0792 0.37208,0.13091 0.23082,0.0413 0.38929,0.0413 0.28939,0 0.50988,-0.0689 0.32039,-0.0999 0.32039,-0.31695 0,-0.46853 -0.65457,-0.6339 l -0.35829,-0.0792 q -0.4582,-0.0999 -0.65112,-0.23426 -0.27906,-0.19293 -0.27906,-0.58222 0,-0.72003 0.67869,-1.02664 0.2067,-0.093 0.66146,-0.22049 0.45475,-0.13091 0.65112,-0.22049 0.14125,-0.062 0.30661,-0.062 0.14814,0 0.24116,0.0965 0.0965,0.0965 0.0965,0.25149 0,0.0999 0.0413,0.29283 0.0448,0.19293 0.0448,0.29283 0,0.15503 -0.0965,0.2515 -0.093,0.0965 -0.24116,0.0965 z"
         id="path34545" />
    </g>
    <text
       xml:space="preserve"
       transform="scale(0.26458333)"
       id="text37786"
       style="line-height:1.25;font-family:'Comic Sans MS';font-size:40px;-inkscape-font-specification:'Comic Sans MS';letter-spacing:0px;white-space:pre;shape-inside:url(#rect37788)" />
  </g>
  <script
     id="hatch_polyfill"
     type="text/javascript">
!function(){const t=&quot;http://www.w3.org/2000/svg&quot;,e=(t,e,r,n)=&gt;{const u=(e-t)/2,i=r+u,s=t+u+n;let h=[];for(let t=r-(Math.round(i/n)+1)*n;t&lt;s;t+=n)h.push(t);return h};class r{constructor(t,e){this.x=t,this.y=e}toString(){return`${this.x} ${this.y}`}isPoint(){return!0}clone(){return new r(this.x,this.y)}add(t){return new r(this.x+t.x,this.y+t.y)}distSquared(t){let e=this.x-t.x,r=this.y-t.y;return e*e+r*r}}document.querySelectorAll(&quot;rect,circle,ellipse,path,text&quot;).forEach((n,u)=&gt;{let i=n.getAttribute(&quot;id&quot;);i||(i=&quot;hatch_shape_&quot;+u,n.setAttribute(&quot;id&quot;,i));const s=(n.getAttribute(&quot;fill&quot;)||n.style.fill).match(/^url\(\s*&quot;?\s*#([^\s&quot;]+)&quot;?\s*\)/);if(s&amp;&amp;s[1]){const u=document.getElementById(s[1]);if(u&amp;&amp;&quot;hatch&quot;===u.nodeName){const i=u.getAttributeNS(&quot;http://www.w3.org/1999/xlink&quot;,&quot;href&quot;);if(null!==i&amp;&amp;&quot;&quot;!==i&amp;&amp;((t,e)=&gt;{const r=[&quot;x&quot;,&quot;y&quot;,&quot;pitch&quot;,&quot;rotate&quot;,&quot;hatchUnits&quot;,&quot;hatchContentUnits&quot;,&quot;transform&quot;],n=document.getElementById(e.slice(1));n&amp;&amp;&quot;hatch&quot;===n.nodeName&amp;&amp;(r.forEach(e=&gt;{let r=n.getAttribute(e);null===t.getAttribute(e)&amp;&amp;null!==r&amp;&amp;t.setAttribute(e,r)}),0===t.children.length&amp;&amp;Array.from(n.children).forEach(e=&gt;{t.appendChild(e.cloneNode(!0))}))})(u,i),0===u.children.length)return;const h=n.getBBox(),o=Math.ceil(Math.sqrt(h.width*h.width+h.height*h.height)),a=u.getAttribute(&quot;hatchUnits&quot;)||&quot;objectBoundingBox&quot;,c=u.getAttribute(&quot;hatchContentUnits&quot;)||&quot;userSpaceOnUse&quot;,b=Number(u.getAttribute(&quot;rotate&quot;))||0,l=u.getAttribute(&quot;transform&quot;)||u.getAttribute(&quot;hatchTransform&quot;)||&quot;&quot;,m=(t=&gt;{const e=[];return t.forEach(t=&gt;e.push(t)),e.sort((t,e)=&gt;Number(e.getAttribute(&quot;offset&quot;))-Number(t.getAttribute(&quot;offset&quot;)))})(u.querySelectorAll(&quot;hatchpath,hatchPath&quot;)),d=&quot;objectBoundingBox&quot;===a?Number(u.getAttribute(&quot;x&quot;))*h.width||0:Number(u.getAttribute(&quot;x&quot;))||0,g=&quot;objectBoundingBox&quot;===a?Number(u.getAttribute(&quot;y&quot;))*h.width||0:Number(u.getAttribute(&quot;y&quot;))||0;let p=&quot;objectBoundingBox&quot;===a?Number(u.getAttribute(&quot;pitch&quot;))*h.width||0:Number(u.getAttribute(&quot;pitch&quot;))||0;if(&quot;objectBoundingBox&quot;===c&amp;&amp;h.height&amp;&amp;(p/=h.height),p&lt;=0)return void console.error(&quot;Non-positive pitch&quot;);const N=document.createElementNS(t,&quot;pattern&quot;),f=`${s[1]}_pattern`;let w=h.width-h.width%p,A=0;const y=e(w,o,d,p);m.forEach(n=&gt;{let u=Number(n.getAttribute(&quot;offset&quot;))||0;u=u&gt;p?u%p:u;const i=y.map(t=&gt;t+u),s=document.createElementNS(t,&quot;path&quot;);let a=&quot;&quot;;for(let t=0;t&lt;n.attributes.length;++t){const e=n.attributes.item(t);&quot;d&quot;!==e.name&amp;&amp;s.setAttribute(e.name,e.value)}if(null===n.getAttribute(&quot;d&quot;))a+=i.reduce((t,e)=&gt;`${t}M ${e} ${g} V ${o} `,&quot;&quot;),A=o;else{const u=n.getAttribute(&quot;d&quot;),c=(t=&gt;{let e=[],n=0,u=t.length,i=0;for(;n&lt;u;)switch(t[n].toUpperCase()){case&quot;Z&quot;:e.push(t[n]),n+=1,i=0;break;case&quot;M&quot;:case&quot;L&quot;:case&quot;T&quot;:e.push(t[n],new r(Number(t[n+1]),Number(t[n+2]))),n+=3,i=1;break;case&quot;H&quot;:e.push(t[n],new r(Number(t[n+1]),null)),n+=2,i=2;break;case&quot;V&quot;:e.push(t[n],new r(null,Number(t[n+1]))),n+=2,i=3;break;case&quot;C&quot;:e.push(t[n],new r(Number(t[n+1]),Number(t[n+2])),new r(Number(t[n+3]),Number(t[n+4])),new r(Number(t[n+5]),Number(t[n+6]))),n+=7,i=4;break;case&quot;S&quot;:case&quot;Q&quot;:e.push(t[n],new r(Number(t[n+1]),Number(t[n+2])),new r(Number(t[n+3]),Number(t[n+4]))),n+=5,i=5;break;case&quot;A&quot;:e.push(t[n],t[n+1],t[n+2],t[n+3],t[n+4],t[n+5],new r(Number(t[n+6]),Number(t[n+7]))),n+=8,i=6;break;case&quot;B&quot;:e.push(t[n],t[n+1]),n+=2,i=7;break;default:switch(i){case 1:e.push(new r(Number(t[n]),Number(t[n+1]))),n+=2;break;case 2:e.push(new r(Number(t[n]),null)),n+=1;break;case 3:e.push(new r(null,Number(t[n]))),n+=1;break;case 4:e.push(new r(Number(t[n]),Number(t[n+1])),new r(Number(t[n+2]),Number(t[n+3])),new r(Number(t[n+4]),Number(t[n+5]))),n+=6;break;case 5:e.push(new r(Number(t[n]),Number(t[n+1])),new r(Number(t[n+2]),Number(t[n+3]))),n+=4;break;case 6:e.push(t[n],t[n+1],t[n+2],t[n+3],t[n+4],new r(Number(t[n+5]),Number(t[n+6]))),n+=7;break;default:e.push(t[n]),n+=1}}return e})(u.match(/([+-]?(\d+(\.\d+)?))|[MmZzLlHhVvCcSsQqTtAaBb]/g)),b=c.length,l=&quot;M&quot;===c[0],m=c[0].toLowerCase()===c[0],d=new r(0,0);let p=(e=&gt;{const r=document.createElementNS(t,&quot;path&quot;);let n=e.getAttribute(&quot;d&quot;);return&quot;M&quot;!==n[0].toUpperCase()&amp;&amp;(n=`M 0,0 ${n}`),r.setAttribute(&quot;d&quot;,n),r.getPointAtLength(r.getTotalLength()).y-r.getPointAtLength(0).y})(n);if(void 0!==c[b-1].y&amp;&amp;p&lt;c[b-1].y&amp;&amp;(p=c[b-1].y),p&lt;=0)return void console.error(&quot;y offset is non-positive&quot;);A=h.height-h.height%p;const N=e(A,o,g,p);i.forEach(t=&gt;{d.x=t,l||m||(a+=`M ${t} 0`),N.forEach(e=&gt;{d.y=e,a+=m?`M ${t} ${e} ${u}`:c.map(t=&gt;t.isPoint&amp;&amp;t.isPoint()?t.add(d):t).map(t=&gt;t.isPoint&amp;&amp;t.isPoint()?t.toString():t).reduce((t,e)=&gt;`${t} ${e}`,&quot;&quot;)})}),s.style.fill=&quot;none&quot;}s.setAttribute(&quot;d&quot;,a),N.appendChild(s)}),((t,e)=&gt;{for(let r in e)t.setAttribute(r,e[r])})(N,{id:f,patternUnits:&quot;userSpaceOnUse&quot;,patternContentUnits:c,width:w,height:A,x:h.x,y:h.y,patternTransform:`rotate(${b} 0 0) ${l}`}),u.parentElement.insertBefore(N,u),n.style.fill=`url(#${f})`,n.setAttribute(&quot;fill&quot;,`url(#${f})`)}}})}();
</script>
</svg>
