<?xml version="1.0" encoding="UTF-8" standalone="no"?>
<!-- Created with Inkscape (http://www.inkscape.org/) -->

<svg
   sodipodi:docname="sæmon.svg"
   id="svg5"
   version="1.1"
   viewBox="0 0 279.4 431.8"
   height="17in"
   width="11in"
   inkscape:version="1.1 (c68e22c387, 2021-05-23)"
   xmlns:inkscape="http://www.inkscape.org/namespaces/inkscape"
   xmlns:sodipodi="http://sodipodi.sourceforge.net/DTD/sodipodi-0.dtd"
   xmlns="http://www.w3.org/2000/svg"
   xmlns:svg="http://www.w3.org/2000/svg">
  <sodipodi:namedview
     id="namedview7"
     pagecolor="#ffffff"
     bordercolor="#666666"
     borderopacity="1.0"
     inkscape:pageshadow="2"
     inkscape:pageopacity="0.0"
     inkscape:pagecheckerboard="0"
     inkscape:document-units="mm"
     showgrid="false"
     inkscape:zoom="0.76613356"
     inkscape:cx="546.90203"
     inkscape:cy="711.36422"
     inkscape:window-width="1707"
     inkscape:window-height="898"
     inkscape:window-x="-6"
     inkscape:window-y="-6"
     inkscape:window-maximized="1"
     inkscape:current-layer="panel5223"
     showguides="true"
     inkscape:guide-bbox="true"
     inkscape:snap-global="false"
     units="in" />
  <defs
     id="defs2">
    <rect
       x="272.12598"
       y="235.08661"
       width="418.01575"
       height="227.52756"
       id="rect21403" />
  </defs>
  <g
     inkscape:label="Layer 1"
     inkscape:groupmode="layer"
     id="layer1">
    <g
       id="panel5223">
      <g
         id="panel6588">
        <path
           style="fill:none;stroke:#000000;stroke-width:1"
           d="m 59.2,129.9 h 12.6 v -1.5 0 0 0 -1.5 H 84 v 1.5 0 0 0 1.5 h 12.5 v -1.5 0 0 0 -1.5 h 12.2 v 1.5 0 0 0 1.5 h 12.5 v -1.5 0 0 0 -1.5 h 12.2 v 1.5 0 0 0 1.5 h 12.5 v -1.5 0 0 0 -1.5 h 12.2 v 1.5 0 0 0 1.5 h 12.5 v -1.5 0 0 0 -1.5 h 12.2 v 1.5 0 0 0 1.5 h 12.6"
           id="path16348" />
        <path
           style="fill:none;stroke:#000000;stroke-width:1"
           d="m 195.4,129.9 v 19.2 h -1.5 v 0 0 0 h -1.5 v 11.8 h 1.5 v 0 0 0 h 1.5 v 19.2"
           id="path16350" />
        <path
           style="fill:none;stroke:#000000;stroke-width:1"
           d="m 195.4,180.1 h -12.6 v 1.5 0 0 0 1.5 h -12.2 v -1.5 0 0 0 -1.5 h -12.5 v 1.5 0 0 0 1.5 H 96.5 v -1.5 0 0 0 -1.5 H 84 v 1.5 0 0 0 1.5 H 71.8 v -1.5 0 0 0 -1.5 H 59.2"
           id="path16352"
           sodipodi:nodetypes="cccccccccccccccccccccccccccccccccccccc" />
        <path
           style="fill:none;stroke:#000000;stroke-width:1"
           d="m 59.2,180.1 v -19.2 h 1.5 v 0 0 0 h 1.5 v -11.8 h -1.5 v 0 0 0 h -1.5 v -19.2"
           id="path16354" />
      </g>
      <g
         id="panel1659">
        <path
           style="fill:none;stroke:#000000;stroke-width:1"
           d="m 4.5,62.2 h 19 v -1.5 0 0 0 -1.5 h 12.2 v 1.5 0 0 0 1.5 h 19"
           id="path16357" />
        <path
           style="fill:none;stroke:#000000;stroke-width:1"
           d="m 54.7,62.2 v 10.9667 h 1.5 v 0 0 0 h 1.5 v 12.2 h -1.5 v 0 0 0 h -1.5 v 13.8666 h 1.5 v 0 0 0 h 1.5 v 12.1997 h -1.5 v 0 0 0 H 54.7 V 122.4"
           id="path16359" />
        <path
           style="fill:none;stroke:#000000;stroke-width:1"
           d="m 54.7,122.4 h -19 v 1.5 0 0 0 1.5 H 23.5 v -1.5 0 0 0 -1.5 h -19"
           id="path16361" />
        <path
           style="fill:none;stroke:#000000;stroke-width:1"
           d="M 4.5,122.4 V 111.433 H 3 v 0 0 0 H 1.5 V 99.2333 H 3 v 0 0 0 H 4.5 V 85.3667 H 3 v 0 0 0 H 1.5 v -12.2 H 3 v 0 0 0 H 4.5 V 62.2"
           id="path16363" />
      </g>
      <g
         id="panel4016">
        <path
           style="fill:none;stroke:#000000;stroke-width:1"
           d="M 59.2,59.2 H 72 v 1.5 0 0 0 1.5 h 11.8 v -1.5 0 0 0 -1.5 h 12.9 v 1.5 0 0 0 1.5 h 11.8 v -1.5 0 0 0 -1.5 h 12.9 v 1.5 0 0 0 1.5 h 11.8 v -1.5 0 0 0 -1.5 h 12.9 v 1.5 0 0 0 1.5 h 11.8 v -1.5 0 0 0 -1.5 h 12.9 v 1.5 0 0 0 1.5 h 11.8 v -1.5 0 0 0 -1.5 h 12.8"
           id="path16366" />
        <path
           style="fill:none;stroke:#000000;stroke-width:1"
           d="m 195.4,59.2 v 14.1667 h -1.5 v 0 0 0 h -1.5 v 11.8 h 1.5 v 0 0 0 h 1.5 v 14.2666 h -1.5 v 0 0 0 h -1.5 v 11.7997 h 1.5 v 0 0 0 h 1.5 V 125.4"
           id="path16368" />
        <path
           style="fill:none;stroke:#000000;stroke-width:1"
           d="m 195.4,125.4 h -12.8 v -1.5 0 0 0 -1.5 h -11.8 v 1.5 0 0 0 1.5 h -12.9 v -1.5 0 0 0 -1.5 h -11.8 v 1.5 0 0 0 1.5 h -12.9 v -1.5 0 0 0 -1.5 h -11.8 v 1.5 0 0 0 1.5 h -12.9 v -1.5 0 0 0 -1.5 H 96.7 v 1.5 0 0 0 1.5 H 83.8 v -1.5 0 0 0 -1.5 H 72 v 1.5 0 0 0 1.5 H 59.2"
           id="path16370" />
        <path
           style="fill:none;stroke:#000000;stroke-width:1"
           d="m 59.2,125.4 v -14.167 h 1.5 v 0 0 0 h 1.5 V 99.4333 h -1.5 v 0 0 0 H 59.2 V 85.1667 h 1.5 v 0 0 0 h 1.5 v -11.8 h -1.5 v 0 0 0 H 59.2 V 59.2"
           id="path16372" />
      </g>
      <g
         id="panel1592">
        <path
           style="fill:none;stroke:#000000;stroke-width:1"
           d="m 199.9,62.2 h 19 v -1.5 0 0 0 -1.5 h 12.2 v 1.5 0 0 0 1.5 h 19"
           id="path16375" />
        <path
           style="fill:none;stroke:#000000;stroke-width:1"
           d="m 250.1,62.2 v 10.9667 h 1.5 v 0 0 0 h 1.5 v 12.2 h -1.5 v 0 0 0 h -1.5 v 13.8666 h 1.5 v 0 0 0 h 1.5 v 12.1997 h -1.5 v 0 0 0 h -1.5 V 122.4"
           id="path16377" />
        <path
           style="fill:none;stroke:#000000;stroke-width:1"
           d="m 250.1,122.4 h -19 v 1.5 0 0 0 1.5 h -12.2 v -1.5 0 0 0 -1.5 h -19"
           id="path16379" />
        <path
           style="fill:none;stroke:#000000;stroke-width:1"
           d="m 199.9,122.4 v -10.967 h -1.5 v 0 0 0 h -1.5 V 99.2333 h 1.5 v 0 0 0 h 1.5 V 85.3667 h -1.5 v 0 0 0 h -1.5 v -12.2 h 1.5 v 0 0 0 h 1.5 V 62.2"
           id="path16381" />
      </g>
      <g
         id="panel7809"
         transform="translate(-198.28919,149.93788)">
        <path
           style="fill:none;stroke:#000000;stroke-width:1"
           d="m 254.6,59.2 h 12.8 v 1.5 0 0 0 1.5 h 11.8 v -1.5 0 0 0 -1.5 h 12.9 v 1.5 0 0 0 1.5 h 61.2 v -1.5 0 0 0 -1.5 h 12.9 v 1.5 0 0 0 1.5 H 378 v -1.5 0 0 0 -1.5 h 12.8"
           id="path16384"
           sodipodi:nodetypes="cccccccccccccccccccccccccccccccccccccc" />
        <path
           style="fill:none;stroke:#000000;stroke-width:1"
           d="m 390.8,59.2 v 14.1667 h -1.5 v 0 0 0 h -1.5 v 11.8 h 1.5 v 0 0 0 h 4.14583 V 99.4333 H 389.3 v 0 0 0 h -1.5 v 11.7997 h 1.5 v 0 0 0 h 1.5 V 125.4"
           id="path16386"
           sodipodi:nodetypes="cccccccccccccccccccccccccc" />
        <path
           style="fill:none;stroke:#000000;stroke-width:1"
           d="M 390.8,125.4 H 378 v -1.5 0 0 0 -1.5 h -11.8 v 1.5 0 0 0 1.5 h -12.9 v -1.5 0 0 0 -1.5 h -61.2 v 1.5 0 0 0 1.5 h -12.9 v -1.5 0 0 0 -1.5 h -11.8 v 1.5 0 0 0 1.5 h -12.8"
           id="path16388"
           sodipodi:nodetypes="cccccccccccccccccccccccccccccccccccccc" />
        <path
           style="fill:none;stroke:#000000;stroke-width:1"
           d="m 254.6,125.4 v -14.167 h 1.5 v 0 0 0 h 1.5 V 99.4333 h -1.5 v 0 0 0 h -4.14583 V 85.1667 H 256.1 v 0 0 0 h 1.5 v -11.8 h -1.5 v 0 0 0 h -1.5 V 59.2"
           id="path16390"
           sodipodi:nodetypes="cccccccccccccccccccccccccc" />
      </g>
      <g
         id="panel7941">
        <path
           style="fill:none;stroke:#000000;stroke-width:1"
           d="M 59.2,4.5 H 71.8 V 3 3 3 3 1.5 H 84 V 3 3 3 3 4.5 H 96.5 V 3 3 3 3 1.5 h 61.6 V 3 3 3 3 4.5 h 12.5 V 3 3 3 3 1.5 h 12.2 V 3 3 3 3 4.5 h 12.6"
           id="path16393"
           sodipodi:nodetypes="cccccccccccccccccccccccccccccccccccccc" />
        <path
           style="fill:none;stroke:#000000;stroke-width:1"
           d="m 195.4,4.5 v 19.2 h -1.5 v 0 0 0 h -1.5 v 11.8 h 1.5 v 0 0 0 h 1.5 v 19.2"
           id="path16395" />
        <path
           style="fill:none;stroke:#000000;stroke-width:1"
           d="m 195.4,54.7 h -12.6 v 1.5 0 0 0 1.5 h -12.2 v -1.5 0 0 0 -1.5 h -12.5 v 1.5 0 0 0 1.5 h -12.2 v -1.5 0 0 0 -1.5 h -12.5 v 1.5 0 0 0 1.5 h -12.2 v -1.5 0 0 0 -1.5 h -12.5 v 1.5 0 0 0 1.5 H 96.5 v -1.5 0 0 0 -1.5 H 84 v 1.5 0 0 0 1.5 H 71.8 v -1.5 0 0 0 -1.5 H 59.2"
           id="path16397" />
        <path
           style="fill:none;stroke:#000000;stroke-width:1"
           d="M 59.2,54.7 V 35.5 h 1.5 v 0 0 0 h 1.5 V 23.7 h -1.5 v 0 0 0 H 59.2 V 4.5"
           id="path16399" />
      </g>
      <ellipse
         style="fill:none;stroke:#000000;stroke-width:0.126895"
         id="path17887"
         cx="109.5322"
         cy="233.39465"
         rx="1.4365524"
         ry="1.4365526" />
      <ellipse
         style="fill:none;stroke:#000000;stroke-width:0.126895"
         id="path17887-59"
         cx="137.49828"
         cy="233.59566"
         rx="1.4365524"
         ry="1.4365526" />
      <ellipse
         style="fill:none;stroke:#000000;stroke-width:0.126895"
         id="path17887-5"
         cx="109.5322"
         cy="250.90993"
         rx="1.4365525"
         ry="1.4365524" />
      <ellipse
         style="fill:none;stroke:#000000;stroke-width:0.126895"
         id="path17887-5-1"
         cx="137.60667"
         cy="250.91827"
         rx="1.4365526"
         ry="1.4365524" />
      <rect
         style="fill:none;stroke:#000000;stroke-width:0.245662"
         id="rect18293"
         width="7.2543378"
         height="7.2543383"
         x="96.776375"
         y="254.31244"
         rx="0"
         ry="0" />
      <rect
         style="fill:none;stroke:#000000;stroke-width:0.245662"
         id="rect18293-5"
         width="7.2543378"
         height="7.2543383"
         x="96.776375"
         y="223.29491"
         rx="0"
         ry="0" />
      <rect
         style="fill:none;stroke:#000000;stroke-width:0.245662"
         id="rect18293-9"
         width="7.2543378"
         height="7.2543383"
         x="143.0847"
         y="223.29491"
         rx="0"
         ry="0" />
      <rect
         style="fill:none;stroke:#000000;stroke-width:0.245662"
         id="rect18293-3"
         width="7.2543378"
         height="7.2543383"
         x="143.0847"
         y="254.31244"
         rx="0"
         ry="0" />
      <g
         aria-label="Einar Þór Sigurðsson"
         transform="matrix(0.30217775,0,0,0.51310216,-2.6425323,-41.35171)"
         id="text21401"
         style="font-size:37.3333px;line-height:1.25;font-family:Lobster;-inkscape-font-specification:Lobster;letter-spacing:0px;white-space:pre;shape-inside:url(#rect21403)">
        <path
           d="m 279.25566,270.29124 q -3.39733,0 -5.152,-1.86666 -1.71733,-1.86667 -1.71733,-4.704 0,-2.016 0.82134,-4.032 0.85866,-2.05333 2.42666,-3.58399 1.568,-1.53067 3.65866,-2.05334 -1.15733,-0.82133 -1.71733,-1.97866 -0.56,-1.19467 -0.56,-2.50133 0,-1.94133 1.04533,-3.808 1.08267,-1.86666 2.94934,-3.024 1.90399,-1.19466 4.18133,-1.19466 2.35199,0 3.84533,1.232 1.49333,1.232 1.49333,3.43466 0,1.64267 -0.82133,2.76267 -0.82134,1.11999 -1.94134,1.11999 -1.008,0 -1.75466,-1.00799 0.672,-0.224 1.15733,-1.232 0.48533,-1.008 0.48533,-2.016 0,-1.08267 -0.59733,-1.568 -0.59733,-0.52267 -1.456,-0.52267 -1.08266,0 -1.97866,0.784 -0.85867,0.74667 -1.344,1.97867 -0.48533,1.19466 -0.48533,2.50133 0,1.792 0.93333,3.17333 0.93333,1.344 2.83733,1.82933 -1.904,0.41067 -3.43467,1.86667 -1.53066,1.456 -2.38933,3.39733 -0.85866,1.904 -0.85866,3.65866 0,1.68 0.85866,2.72533 0.896,1.04533 2.688,1.04533 1.86667,0 3.88266,-1.008 2.05334,-1.04533 3.024,-2.79999 l 0.85867,0.37333 q -1.456,3.21066 -4.48,5.11466 -3.024,1.904 -6.45866,1.904 z"
           style="fill:#ff0000"
           id="path49" />
        <path
           d="m 295.49563,248.93659 q -1.232,0 -2.09066,-0.85866 -0.85867,-0.85867 -0.85867,-2.09067 0,-1.232 0.85867,-2.09066 0.85866,-0.896 2.09066,-0.896 1.232,0 2.09067,0.896 0.896,0.85866 0.896,2.09066 0,1.232 -0.896,2.09067 -0.85867,0.85866 -2.09067,0.85866 z m -2.53866,20.90665 q -1.792,0 -2.912,-1.12 -1.08267,-1.12 -1.08267,-3.35999 0,-0.93334 0.29867,-2.42667 l 2.53867,-11.98399 h 5.37599 l -2.688,12.69332 q -0.14933,0.56 -0.14933,1.19467 0,0.74666 0.336,1.08266 0.37333,0.29867 1.19467,0.29867 1.08266,0 2.01599,-0.896 0.93334,-0.93333 1.344,-2.38933 h 1.568 q -1.38133,4.032 -3.54666,5.488 -2.16533,1.41866 -4.29333,1.41866 z"
           style="fill:#ff0000"
           id="path51" />
        <path
           d="m 312.70622,269.84324 q -2.27733,0 -3.36,-1.19466 -1.04533,-1.232 -1.04533,-3.024 0,-0.784 0.18667,-1.75467 0.18666,-1.008 0.37333,-1.94133 0.224,-0.93333 0.29867,-1.19466 0.29866,-1.30667 0.56,-2.576 0.26133,-1.26933 0.26133,-2.05333 0,-1.904 -1.344,-1.904 -0.97066,0 -1.71733,0.97066 -0.74667,0.93334 -1.19467,2.464 l -2.53866,11.98399 h -5.376 l 3.95733,-18.66665 h 5.376 l -0.41067,1.94133 q 1.86667,-2.09066 4.368,-2.09066 1.904,0 3.024,1.04533 1.12,1.04533 1.12,3.17333 0,1.08267 -0.26134,2.42667 -0.26133,1.30666 -0.74666,3.21066 -0.29867,1.15733 -0.56,2.27733 -0.224,1.08267 -0.224,1.71733 0,0.74667 0.336,1.15733 0.336,0.41067 1.15733,0.41067 1.12,0 1.792,-0.784 0.672,-0.82133 1.344,-2.50133 h 1.56799 q -1.38133,4.10666 -3.21066,5.52533 -1.792,1.38133 -3.73333,1.38133 z"
           style="fill:#ff0000"
           id="path53" />
        <path
           d="m 322.56218,269.84324 q -2.128,0 -3.54666,-1.456 -1.41867,-1.456 -1.41867,-4.55466 0,-2.76266 1.08267,-5.78666 1.12,-3.06133 3.28533,-5.152 2.20266,-2.128 5.22666,-2.128 1.53066,0 2.27733,0.52267 0.74667,0.52267 0.74667,1.38133 v 0.26134 l 0.41066,-1.97867 h 5.376 l -2.688,12.69332 q -0.14933,0.56 -0.14933,1.19467 0,1.60533 1.53066,1.60533 1.04534,0 1.792,-0.97067 0.784,-0.97066 1.232,-2.53866 h 1.568 q -1.38133,4.032 -3.43466,5.488 -2.016,1.41866 -4.06933,1.41866 -1.568,0 -2.53867,-0.85866 -0.93333,-0.896 -1.12,-2.576 -1.08266,1.53066 -2.42666,2.50133 -1.30667,0.93333 -3.136,0.93333 z m 2.42666,-3.62133 q 0.93334,0 1.82934,-0.85866 0.93333,-0.896 1.26933,-2.42667 l 1.792,-8.43733 q 0,-0.48533 -0.37334,-0.93333 -0.37333,-0.48533 -1.15733,-0.48533 -1.49333,0 -2.688,1.75466 -1.19466,1.71734 -1.86666,4.18133 -0.672,2.42667 -0.672,4.29333 0,1.86667 0.52267,2.38933 0.56,0.52267 1.34399,0.52267 z"
           style="fill:#ff0000"
           id="path55" />
        <path
           d="m 340.25813,250.95259 h 5.376 l -0.48534,2.31467 q 1.26934,-1.12 2.27734,-1.71734 1.04533,-0.59733 2.23999,-0.59733 1.19467,0 1.86667,0.82133 0.70933,0.82134 0.70933,1.97867 0,1.08266 -0.70933,1.904 -0.70933,0.82133 -1.97867,0.82133 -0.82133,0 -1.12,-0.37333 -0.26133,-0.41067 -0.41066,-1.15734 -0.112,-0.48533 -0.224,-0.70933 -0.112,-0.224 -0.41067,-0.224 -0.784,0 -1.344,0.336 -0.52266,0.29867 -1.38133,1.08267 l -2.98666,14.18665 h -5.376 z"
           style="fill:#ff0000"
           id="path57" />
        <path
           d="m 367.84739,248.63793 q -2.09067,1.08266 -3.21066,3.09866 -1.08267,1.97866 -1.08267,4.77866 0,1.38133 0.26133,1.94133 0.26134,0.52267 0.26134,0.59734 -2.016,0 -3.024,-0.82134 -0.97067,-0.85866 -0.97067,-2.79999 0,-1.792 1.08267,-3.50933 1.12,-1.75467 2.98666,-3.136 1.86667,-1.38133 4.10667,-2.16533 l 0.93333,-4.256 5.52533,-0.74666 -0.896,4.10666 q 4.03199,0.224 6.08533,2.27733 2.09066,2.05333 2.09066,5.07733 0,2.42666 -1.344,4.74133 -1.30666,2.31466 -3.77066,3.80799 -2.464,1.456 -5.67466,1.456 h -1.08267 l -1.38133,6.53333 h -5.376 z m 3.09866,13.06665 q 1.904,0 3.472,-1.41866 1.60533,-1.41867 2.50133,-3.54667 0.93333,-2.16533 0.93333,-4.21866 0,-2.16533 -1.08266,-3.584 -1.08267,-1.41866 -3.28533,-1.49333 l -3.06133,14.26132 z"
           style="fill:#ff0000"
           id="path59" />
        <path
           d="m 393.42063,241.61927 h 3.92 l -4.51733,7.05599 h -2.8 z m -6.34666,28.1493 q -2.76267,0 -4.368,-1.41866 -1.60533,-1.41867 -1.60533,-4.48 0,-2.53866 1.04533,-5.63733 1.04533,-3.09866 3.36,-5.33866 2.31466,-2.27733 5.82399,-2.27733 4.77867,0 4.77867,5.97333 v 0.0373 q 0.112,0.0373 0.41066,0.0373 1.232,0 2.83733,-0.63467 1.60534,-0.672 2.912,-1.60533 l 0.336,1.008 q -1.08266,1.15733 -2.83733,1.97866 -1.71733,0.784 -3.77066,1.12 -0.29867,3.39733 -1.53067,5.936 -1.232,2.53866 -3.17333,3.91999 -1.94133,1.38133 -4.21866,1.38133 z m 1.49333,-3.35999 q 0.896,0 1.792,-1.008 0.896,-1.04533 1.568,-2.8 0.672,-1.792 0.97066,-3.95733 -1.008,-0.224 -1.008,-1.568 0,-1.53066 1.15734,-2.016 -0.0747,-1.232 -0.37334,-1.67999 -0.29866,-0.48534 -1.04533,-0.48534 -1.232,0 -2.38933,1.792 -1.15733,1.792 -1.86667,4.29333 -0.70933,2.50133 -0.70933,4.40533 0,1.792 0.41067,2.42666 0.41066,0.59734 1.49333,0.59734 z"
           style="fill:#ff0000"
           id="path61" />
        <path
           d="m 400.55126,250.95259 h 5.376 l -0.48534,2.31467 q 1.26934,-1.12 2.27733,-1.71734 1.04534,-0.59733 2.24,-0.59733 1.19467,0 1.86667,0.82133 0.70933,0.82134 0.70933,1.97867 0,1.08266 -0.70933,1.904 -0.70934,0.82133 -1.97867,0.82133 -0.82133,0 -1.12,-0.37333 -0.26133,-0.41067 -0.41066,-1.15734 -0.112,-0.48533 -0.224,-0.70933 -0.112,-0.224 -0.41067,-0.224 -0.784,0 -1.344,0.336 -0.52266,0.29867 -1.38133,1.08267 l -2.98666,14.18665 h -5.376 z"
           style="fill:#ff0000"
           id="path63" />
        <path
           d="m 429.29784,270.29124 q -2.352,0 -4.14399,-0.82133 -1.792,-0.82133 -2.76267,-2.27733 -0.97066,-1.49334 -0.97066,-3.43467 0,-1.64266 0.672,-2.98666 0.70933,-1.344 1.86666,-2.128 1.19467,-0.784 2.61333,-0.784 1.30667,0 2.20267,0.672 0.896,0.63467 1.12,1.792 -1.94134,0 -3.09867,1.04533 -1.15733,1.008 -1.15733,2.76267 0,1.60533 0.97067,2.57599 0.97066,0.97067 2.57599,0.97067 1.97867,0 3.248,-1.30667 1.30667,-1.34399 1.30667,-3.35999 0,-1.75467 -0.97067,-3.32267 -0.97067,-1.568 -2.912,-3.80799 -2.016,-2.31467 -3.06133,-3.95733 -1.008,-1.68 -1.008,-3.65867 0,-1.94133 1.08267,-3.47199 1.08266,-1.568 2.98666,-2.464 1.904,-0.896 4.29333,-0.896 3.024,0 4.816,1.41866 1.82933,1.41867 1.82933,3.808 0,1.568 -0.784,2.53867 -0.784,0.97066 -2.05333,0.97066 -1.41867,0 -2.27733,-1.15733 0.70933,-0.52267 1.12,-1.38133 0.41066,-0.85867 0.41066,-1.792 0,-1.19467 -0.70933,-1.904 -0.70933,-0.70933 -1.94133,-0.70933 -1.49333,0 -2.464,1.08266 -0.93333,1.04534 -0.93333,2.688 0,1.49333 0.85866,2.8 0.85867,1.26933 2.688,3.28533 1.49333,1.60533 2.38933,2.76266 0.93334,1.15734 1.568,2.688 0.672,1.49333 0.672,3.248 0,2.38933 -1.344,4.33066 -1.30666,1.94133 -3.62133,3.06133 -2.27733,1.12 -5.07733,1.12 z"
           style="fill:#ff0000"
           id="path65" />
        <path
           d="m 447.66581,248.93659 q -1.232,0 -2.09066,-0.85866 -0.85867,-0.85867 -0.85867,-2.09067 0,-1.232 0.85867,-2.09066 0.85866,-0.896 2.09066,-0.896 1.232,0 2.09067,0.896 0.896,0.85866 0.896,2.09066 0,1.232 -0.896,2.09067 -0.85867,0.85866 -2.09067,0.85866 z m -2.53866,20.90665 q -1.792,0 -2.912,-1.12 -1.08266,-1.12 -1.08266,-3.35999 0,-0.93334 0.29866,-2.42667 l 2.53867,-11.98399 h 5.37599 l -2.688,12.69332 q -0.14933,0.56 -0.14933,1.19467 0,0.74666 0.336,1.08266 0.37333,0.29867 1.19467,0.29867 1.08266,0 2.016,-0.896 0.93333,-0.93333 1.34399,-2.38933 h 1.568 q -1.38133,4.032 -3.54666,5.488 -2.16533,1.41866 -4.29333,1.41866 z"
           style="fill:#ff0000"
           id="path67" />
        <path
           d="m 458.00709,278.95257 q -1.792,0 -2.98667,-0.93334 -1.19466,-0.93333 -1.19466,-2.68799 0,-2.128 1.71733,-3.43467 1.71733,-1.26933 4.368,-2.128 l 0.448,-1.97866 q -1.904,2.05333 -4.48,2.05333 -2.128,0 -3.54666,-1.456 -1.41867,-1.456 -1.41867,-4.55466 0,-2.76266 1.08267,-5.78666 1.12,-3.06133 3.28533,-5.152 2.20266,-2.128 5.22666,-2.128 1.53066,0 2.27733,0.52267 0.74667,0.52267 0.74667,1.38133 v 0.224 l 0.41066,-1.94133 h 5.376 l -3.696,17.32265 q 1.792,-0.59733 2.87467,-1.792 1.08266,-1.19466 1.82933,-3.54666 h 1.568 q -1.008,3.32266 -2.72533,4.89066 -1.71734,1.53067 -3.88267,2.09067 l -0.56,2.688 q -0.74666,3.62133 -2.576,4.96532 -1.82933,1.38134 -4.14399,1.38134 z m 0.29866,-12.73066 q 0.85867,0 1.75467,-0.784 0.896,-0.784 1.232,-2.128 l 1.904,-8.84799 q 0,-0.448 -0.37334,-0.896 -0.37333,-0.48533 -1.15733,-0.48533 -1.49333,0 -2.688,1.75466 -1.19466,1.71734 -1.86666,4.18133 -0.672,2.42667 -0.672,4.29333 0,1.86667 0.52267,2.38933 0.56,0.52267 1.34399,0.52267 z m -1.15733,9.81866 q 0.63467,0 1.232,-0.85867 0.59733,-0.85866 0.93333,-2.46399 l 0.224,-1.08267 q -3.65866,1.344 -3.65866,3.17333 0,0.48533 0.336,0.85867 0.336,0.37333 0.93333,0.37333 z"
           style="fill:#ff0000"
           id="path69" />
        <path
           d="m 474.02307,269.84324 q -1.792,0 -2.912,-1.12 -1.08266,-1.12 -1.08266,-3.35999 0,-0.93334 0.29866,-2.42667 l 2.53867,-11.98399 h 5.37599 l -2.688,12.69332 q -0.112,0.56 -0.112,1.04534 0,1.53066 1.12,1.53066 1.04534,0 1.792,-0.85866 0.74667,-0.896 1.19467,-2.42667 l 2.53866,-11.98399 h 5.376 l -2.688,12.69332 q -0.14933,0.56 -0.14933,1.19467 0,0.74666 0.336,1.08266 0.37333,0.29867 1.19466,0.29867 1.04533,0 1.792,-0.896 0.784,-0.896 1.232,-2.38933 h 1.568 q -1.38133,4.032 -3.43467,5.488 -2.01599,1.41866 -4.06933,1.41866 -1.60533,0 -2.57599,-0.896 -0.93334,-0.896 -1.12,-2.65066 -1.26933,2.05333 -2.688,2.8 -1.38133,0.74666 -2.83733,0.74666 z"
           style="fill:#ff0000"
           id="path71" />
        <path
           d="m 491.71902,250.95259 h 5.376 l -0.48533,2.31467 q 1.26933,-1.12 2.27733,-1.71734 1.04533,-0.59733 2.24,-0.59733 1.19466,0 1.86666,0.82133 0.70933,0.82134 0.70933,1.97867 0,1.08266 -0.70933,1.904 -0.70933,0.82133 -1.97866,0.82133 -0.82134,0 -1.12,-0.37333 -0.26134,-0.41067 -0.41067,-1.15734 -0.112,-0.48533 -0.224,-0.70933 -0.112,-0.224 -0.41067,-0.224 -0.784,0 -1.34399,0.336 -0.52267,0.29867 -1.38134,1.08267 l -2.98666,14.18665 h -5.376 z"
           style="fill:#ff0000"
           id="path73" />
        <path
           d="m 524.42297,262.93658 q -2.27733,6.68266 -7.504,6.68266 -1.53066,0 -2.50133,-0.82133 -0.93333,-0.82133 -1.15733,-2.42667 -2.27733,3.472 -5.56266,3.472 -2.128,0 -3.54667,-1.456 -1.41866,-1.456 -1.41866,-4.55466 0,-2.76266 1.08266,-5.78666 1.12,-3.06133 3.28533,-5.152 2.20267,-2.128 5.22667,-2.128 1.568,0 2.35199,0.56 0.784,0.56 0.784,1.568 0.29867,-1.97866 0.29867,-3.39733 0,-1.26933 -0.18667,-2.09066 l -4.51733,1.19466 -0.44799,-1.904 4.36799,-1.23199 q -0.672,-1.38134 -1.71733,-2.65067 l 3.248,-1.19466 q 1.41866,1.19466 2.35199,2.72533 l 4.144,-1.15734 0.48533,2.09067 -3.62133,0.97066 q 0.896,2.27734 0.896,4.928 0,1.68 -0.41066,3.65866 l -1.904,8.81066 q -0.14933,0.56 -0.14933,1.19467 0,0.74666 0.33599,1.08266 0.37334,0.29867 1.19467,0.29867 1.04533,0 1.792,-0.896 0.784,-0.896 1.232,-2.38933 z m -9.408,-8.43733 q 0,-0.448 -0.37333,-0.93333 -0.37333,-0.48533 -1.15733,-0.48533 -1.49333,0 -2.688,1.75466 -1.19466,1.71734 -1.86666,4.18133 -0.672,2.42667 -0.672,4.29333 0,1.86667 0.52266,2.38933 0.56,0.52267 1.344,0.52267 0.93333,0 1.82933,-0.85866 0.93334,-0.896 1.26934,-2.42667 z"
           style="fill:#ff0000"
           id="path75" />
        <path
           d="m 527.11093,269.84324 q -1.792,0 -3.024,-0.672 -1.232,-0.70933 -1.82933,-1.792 -0.59733,-1.12 -0.59733,-2.31466 0,-1.232 0.59733,-2.128 0.56,-0.93333 1.38133,-1.344 1.456,-2.61333 2.53867,-5.26399 1.08266,-2.688 2.05333,-5.78667 l 5.52533,-0.74666 q 0.18667,4.77866 0.63466,10.34132 0.18667,2.24 0.18667,3.248 0,0.85867 -0.14933,1.41867 1.75466,-1.008 2.688,-1.86667 h 1.56799 q -2.38933,2.76266 -5.71199,4.66666 -1.08267,1.15734 -2.688,1.71734 -1.568,0.52266 -3.17333,0.52266 z m -1.19466,-2.94933 q 1.38133,0 2.31466,-0.82133 0.93333,-0.82133 0.93333,-2.65067 0,-1.12 -0.224,-3.13599 -0.37333,-4.256 -0.48533,-5.712 -0.896,2.94933 -3.024,7.05599 0.85867,0.448 0.85867,1.30667 0,0.70933 -0.48533,1.26933 -0.448,0.56 -1.15734,0.56 -0.784,0 -1.008,-0.48533 0,1.344 0.52267,1.97866 0.56,0.63467 1.75467,0.63467 z"
           style="fill:#ff0000"
           id="path77" />
        <path
           d="m 541.37227,269.84324 q -1.792,0 -3.024,-0.672 -1.232,-0.70933 -1.82933,-1.792 -0.59733,-1.12 -0.59733,-2.31466 0,-1.232 0.59733,-2.128 0.56,-0.93333 1.38133,-1.344 1.456,-2.61333 2.53867,-5.26399 1.08266,-2.688 2.05333,-5.78667 l 5.52533,-0.74666 q 0.18666,4.77866 0.63466,10.34132 0.18667,2.24 0.18667,3.248 0,0.85867 -0.14933,1.41867 1.75466,-1.008 2.68799,-1.86667 h 1.568 q -2.38933,2.76266 -5.71199,4.66666 -1.08267,1.15734 -2.688,1.71734 -1.568,0.52266 -3.17333,0.52266 z m -1.19467,-2.94933 q 1.38133,0 2.31467,-0.82133 0.93333,-0.82133 0.93333,-2.65067 0,-1.12 -0.224,-3.13599 -0.37333,-4.256 -0.48533,-5.712 -0.896,2.94933 -3.024,7.05599 0.85867,0.448 0.85867,1.30667 0,0.70933 -0.48534,1.26933 -0.448,0.56 -1.15733,0.56 -0.784,0 -1.008,-0.48533 0,1.344 0.52267,1.97866 0.56,0.63467 1.75466,0.63467 z"
           style="fill:#ff0000"
           id="path79" />
        <path
           d="m 556.82826,269.76857 q -2.76267,0 -4.368,-1.41866 -1.60533,-1.41867 -1.60533,-4.48 0,-2.53866 1.04533,-5.63733 1.04533,-3.09866 3.36,-5.33866 2.31466,-2.27733 5.82399,-2.27733 4.77866,0 4.77866,5.97333 v 0.0373 q 0.112,0.0373 0.41067,0.0373 1.232,0 2.83733,-0.63467 1.60533,-0.672 2.912,-1.60533 l 0.336,1.008 q -1.08267,1.15733 -2.83733,1.97866 -1.71733,0.784 -3.77066,1.12 -0.29867,3.39733 -1.53067,5.936 -1.232,2.53866 -3.17333,3.91999 -1.94133,1.38133 -4.21866,1.38133 z m 1.49333,-3.35999 q 0.896,0 1.792,-1.008 0.896,-1.04533 1.568,-2.8 0.67199,-1.792 0.97066,-3.95733 -1.008,-0.224 -1.008,-1.568 0,-1.53066 1.15733,-2.016 -0.0747,-1.232 -0.37333,-1.67999 -0.29867,-0.48534 -1.04533,-0.48534 -1.232,0 -2.38933,1.792 -1.15733,1.792 -1.86667,4.29333 -0.70933,2.50133 -0.70933,4.40533 0,1.792 0.41067,2.42666 0.41066,0.59734 1.49333,0.59734 z"
           style="fill:#ff0000"
           id="path81" />
        <path
           d="m 580.60953,269.84324 q -1.97866,0 -2.87466,-1.19466 -0.896,-1.19467 -0.896,-3.024 0,-0.784 0.18667,-1.75467 0.18666,-1.008 0.37333,-1.94133 0.224,-0.93333 0.29866,-1.19466 0.29867,-1.30667 0.56,-2.576 0.26134,-1.26933 0.26134,-2.05333 0,-1.904 -1.344,-1.904 -0.97067,0 -1.71733,0.97066 -0.74667,0.93334 -1.19467,2.464 l -2.53866,11.98399 h -5.376 l 3.95733,-18.66665 h 5.376 l -0.41067,1.94133 q 1.86666,-2.09066 4.368,-2.09066 1.90399,0 3.02399,1.04533 1.12,1.04533 1.12,3.17333 0,1.08267 -0.26133,2.42667 -0.26133,1.30666 -0.74667,3.21066 -0.29866,1.15733 -0.56,2.27733 -0.224,1.08267 -0.224,1.71733 0,0.74667 0.336,1.15733 0.336,0.41067 1.15734,0.41067 0.896,0 1.232,-0.224 -0.224,1.904 -1.38134,2.87467 -1.12,0.97066 -2.72533,0.97066 z"
           style="fill:#ff0000"
           id="path83" />
      </g>
    </g>
  </g>
</svg>
